<?xml version="1.0" encoding="UTF-8" standalone="no"?>
<svg width="32px" height="24px" viewBox="0 0 32 24" version="1.1" xmlns="http://www.w3.org/2000/svg" xmlns:xlink="http://www.w3.org/1999/xlink">
    <!-- Generator: Sketch 50.2 (55047) - http://www.bohemiancoding.com/sketch -->
    <title>placeholder</title>
    <desc>Created with Sketch.</desc>
    <defs></defs>
    <g id="placeholder" stroke="none" stroke-width="1" fill="none" fill-rule="evenodd">
        <path d="M24.0909086,16.4686083 L24.0909086,18.2909091 C24.0909086,18.6323215 23.8141391,18.9090909 23.4727267,18.9090909 C23.1313143,18.9090909 22.8545449,18.6323215 22.8545449,18.2909091 L22.8545449,17.3592037 L22.8545444,16.9818182 C22.8545444,16.6404058 22.5777749,16.3636364 22.2363625,16.3636364 C21.8955128,16.3636364 21.6190931,16.6394943 21.618183,16.9801308 L21.618183,20.8363636 C21.618183,21.177776 21.3414135,21.4545455 21.0000011,21.4545455 C20.6585887,21.4545455 20.3818193,21.177776 20.3818193,20.8363636 L20.3818193,17.4109202 C20.3786174,17.4109658 20.375414,17.4110114 20.3722094,17.411057 L20.3722094,9.91581429 C20.5250167,8.91897803 18.8047924,8.73170913 18.7951536,9.87718592 C18.7705691,10.5246686 18.7787467,10.3032333 18.7171898,12.0600158 C18.676152,13.2312042 17.2264127,14.1818182 16.0909091,14.1818182 C14.9554055,14.1818182 13.6147353,13.2305892 13.573719,12.0600158 C13.5121622,10.3032333 13.5203397,10.5246686 13.4957553,9.87718592 C13.4861164,8.73170913 11.7658921,8.91897803 11.9186995,9.91581429 C11.9186995,10.4855988 11.9204615,12.4917304 11.9239856,16.3636364 L11.947138,16.3636364 L11.947138,20.8363636 C11.947138,21.177776 11.6703685,21.4545455 11.3289561,21.4545455 C10.9875437,21.4545455 10.7107743,21.177776 10.7107743,20.8363636 L10.7107743,17.4435254 C10.710213,17.4435205 10.7096518,17.4435156 10.7090907,17.4435106 L10.7090907,16.9818182 C10.7090907,16.6404058 10.4323212,16.3636364 10.0909088,16.3636364 C9.74984534,16.3636364 9.47329276,16.6398404 9.47272786,16.9807717 L9.47272786,18.2909091 C9.47272786,18.6323215 9.19595843,18.9090909 8.85454603,18.9090909 C8.51313363,18.9090909 8.23636419,18.6323215 8.23636419,18.2909091 L8.23636419,17.1088931 C8.18316156,16.5150877 7.91406276,15.9516501 7.4655942,15.5329311 L3.78049408,12.0922861 C2.78582673,11.163601 2.73510052,9.60736444 3.66719393,8.61633425 C4.07036636,8.18766904 4.61423841,7.9169676 5.20037818,7.85322248 L9.94753508,7.33694958 C10.8338777,7.24055615 11.5991416,6.67537734 11.9494367,5.85846296 L13.8210854,1.49363867 C14.3566381,0.244689644 15.8069785,-0.335219843 17.0605113,0.198374571 C17.6450958,0.447216109 18.1107744,0.911191799 18.3605292,1.49363867 L20.2321778,5.85846296 C20.5824729,6.67537734 21.3477368,7.24055615 22.2340794,7.33694958 L26.9812363,7.85322248 C28.3363315,8.0005947 29.314946,9.21456817 29.1670329,10.5647082 C29.1030539,11.1487047 28.8313589,11.6905879 28.4011204,12.0922861 L24.7160204,15.5329311 C24.4333305,15.7968685 24.2219105,16.1183076 24.0909086,16.4686083 Z M16.1636366,13.4545455 C17.0673753,13.4545455 17.8000003,12.7219205 17.8000003,11.8181818 C17.8000003,10.9144431 17.0673753,10.1818182 16.1636366,10.1818182 C15.259898,10.1818182 14.527273,10.9144431 14.527273,11.8181818 C14.527273,12.7219205 15.259898,13.4545455 16.1636366,13.4545455 Z M16.272727,18.9090909 C16.6141394,18.9090909 16.8909088,19.1858603 16.8909088,19.5272727 L16.8909088,23.3818182 C16.8909088,23.7232306 16.6141394,24 16.272727,24 C15.9313146,24 15.6545452,23.7232306 15.6545452,23.3818182 L15.6545452,19.5272727 C15.6545452,19.1858603 15.9313146,18.9090909 16.272727,18.9090909 Z M18.5272727,17.8181818 C18.8686851,17.8181818 19.1454546,18.0949513 19.1454546,18.4363637 L19.1454546,22.2909091 C19.1454546,22.6323215 18.8686851,22.9090909 18.5272727,22.9090909 C18.1858603,22.9090909 17.9090909,22.6323215 17.9090909,22.2909091 L17.9090909,18.4363637 C17.9090909,18.0949513 18.1858603,17.8181818 18.5272727,17.8181818 Z M13.8,17.8181818 C14.1414124,17.8181818 14.4181819,18.0949513 14.4181819,18.4363637 L14.4181819,22.2909091 C14.4181819,22.6323215 14.1414124,22.9090909 13.8,22.9090909 C13.4585876,22.9090909 13.1818182,22.6323215 13.1818182,22.2909091 L13.1818182,18.4363637 C13.1818182,18.0949513 13.4585876,17.8181818 13.8,17.8181818 Z" id="kss-svg" fill="#e4e4e4" fill-rule="nonzero" transform="translate(16.090909, 12.000000) rotate(45.000000) translate(-16.090909, -12.000000) "></path>
    </g>
</svg>